<?xml version="1.0" encoding="UTF-8"?><svg id="Layer_2" xmlns="http://www.w3.org/2000/svg" xmlns:xlink="http://www.w3.org/1999/xlink" viewBox="0 0 512 464.7"><defs><linearGradient id="linear-gradient" x1="8.8" y1="495.41" x2="587.55" y2="691.28" gradientTransform="translate(126.91 114.01) scale(.55)" gradientUnits="userSpaceOnUse"><stop offset=".36" stop-color="#d4ce34"/><stop offset="1" stop-color="#e9ab33"/></linearGradient><linearGradient id="linear-gradient-2" x1="300.08" y1="445.41" x2="132.86" y2="755.15" gradientTransform="translate(126.91 114.01) scale(.55)" gradientUnits="userSpaceOnUse"><stop offset=".28" stop-color="#c8c53c"/><stop offset=".89" stop-color="#d8b640"/><stop offset="1" stop-color="#efa339"/></linearGradient></defs><g id="Generative_Object"><path d="M320.3,427.7c21.13-1.81,42.07-3.11,63.29-3.85,34.72-1.22,69.55-1.36,104.29-.55l.83,1.93c-1.08,1.91-2.32,3.92-4.13,5.23-13.85,10-89.85,8.43-110.62,9.91-81.02,5.74-166.53,22.59-248.2,19.26-7.63-.31-33.16-1.73-39.07-4.4-12.54-5.67,13.11-7.41,16.51-7.7,27.33-2.4,55.22-.83,82.55-3.3,16.88-1.53,33.62-6.29,50.08-8.25,27.48-3.28,56.85-5.89,84.48-8.25Z" fill="url(#linear-gradient)"/><path d="M88.61,329.74c-.06.01.21.89-.28,1.1-.4.17-6.69-2.96-7.98-3.3-1.39-.37-2.48.65-3.03.55-.73-.13-1.51-2.18-1.65-2.2-.42-.06-5.22,3.28-7.7,2.2.68.94,3.12.75,4.13,1.1,9.9,6.25,14.07,19.33,10.18,30.27l-2.75-3.3c-2.17,7.28-2.36,1.02-4.68-2.48-1.39-2.1-4.39-4.9-5.5-6.88-2.96-5.28-3.38-10.07-5.78-15.41-2.98,6.6-7.72,13.76-6.33,21.19l6.33-19.54c3.17,8.74,4.27,17.13,1.38,26.14,2.68-2.81,2.48-8.8,2.75-12.66.51.12,1.14.93,1.65,1.38.05.05.46,1,.55,1.1h-.55c-1.66,4.36,3.62,27.91-2.48,28.07l-1.38-.83c-3.2-8.95,0-18.74-3.3-27.52.09,1.73-.13,3.51,0,5.23-.64.05-.87.6-1.1,1.1-2.16,4.71-1.89,12.3-5.5,17.06l-3.3-11.56c.29-3.05,1.11-9.82,1.65-12.66.34.05.97-.09,1.1,0,.06.04.5,1.46,1.1.83l2.2-7.15-1.1.28c-.44-.14-1.5.34-1.65.55-.41-2.38-3.22,4.38-3.58,4.95-.5.78-2.58-.74-1.93,1.65-.46.01-.57.41-1.1.55-2.06.56-3.36,4.52-4.68,6.05-.06.07-.44-1.31-1.93.28-.42.45-1.01,2.86-1.65,3.58-.11.1-1-.1-1.1,0-1.98,2.09-3,4.85-4.68,7.15-5.41-18.36,8.55-30.63,24.49-36.05-.39-2.11-11.7,4.13-12.66,4.68-1.6.16-1.4-1.07-.55-1.93,2.54-2.55,9.33-3.92,12.93-4.13-9.6-.78-20.71,6.42-28.07,12.11l-1.65-4.95c-2.02,4.4-3.12,9.61-7.43,12.38.68-11.55,7.12-25.58,19.81-27.24h4.4c4.82.81,12.53,4.82,16.51,7.15.08.05.01,1.56.83,1.65.5.06,8.1-4.46,8.81-4.95,2.18-1.54,8.73-9.14,9.36-9.36,2.36-.8,15.64,1.55,16.23,4.13.13.57-3.35,10.72-3.85,11.01-.71.41-4.85-2.64-5.23-2.48-.49.21-.22,1.09-.28,1.1Z" fill="#8da348"/><path d="M455.41,442.56c.92-.02,1.84.02,2.75,0,.52.3-.28.93-.55,1.1-12.45,7.84-97.61,20.07-115.57,20.91-2.13.1-18.65.47-18.99-.83.14-1.24,2.04-1.97,3.03-2.48,26.09-13.35,98.48-17.93,129.33-18.71Z" fill="#e3c43b"/><path d="M423.76,358.36c-1.16,4.53-.91,4.48-1.1,8.81,0,.09-1.08,1.06-1.1,1.38-.38,5.32,3.11,2.56,2.2-1.38.16-.27-.27-1.59.28-1.65.95,1.28.81,2.36.83,3.85,0,1.22-1.57,7.19-.28,7.7h9.36l-2.48-12.93c-1.85,1.21-.17,5.82-3.3,5.5.86-1.09,1.46-2.78,1.65-4.13.36-2.54.43-5.16.83-7.7.94-.15,3.05,16.32,4.68,18.44,1.07,1.39,5.43-.42,6.33.83,3.21-3.56-2.24-15.09-1.38-17.06,1.28,2.59,3.07,6.83,3.3,9.63.36,4.32-1.6,7.45-1.1,10.73-6.9-1.85-7.97-.53-15.13-.55-51.54-.11-103.19-2.8-154.64.55l5.5-1.65,144.19-1.1c1.18-.46.37-5.43-1.65-5.5l-152.72-.28,42.65-1.93,108.97,1.65c1.87-3.8-2.5-2.62-2.75-2.75-1.56-.78.86-1.6-3.58-1.65-.05-.34.09-.98,0-1.1,3.75-1.86,4.83,2.25,6.33-2.75.94,11.51,3.14-7.56,4.68-11.56.39-1.01,6.77-12.37,7.43-12.11-.72,3.83-4.6,7.62-6.33,11.83-.7,1.71-1.15,4.92-1.65,6.88Z" fill="#1e2f26"/><path d="M382.49,417.25c1.75,2.33,1,1.34-1.1,1.65-4.74.7-7.74,1.17-11.83,1.65-3.81.45-7.31,1.32-9.91,1.65-2.09.27-11.08-2.55-9.08,2.2-10.08.6-20.18,1.11-30.27,1.65-9.53.51-19.09.49-28.62,1.1-.56-1.82,1.89-1.98,3.03-2.2,27.09-5.23,59.96-6.24,87.78-7.7Z" fill="#e3d896"/><path d="M25.87,401.29s.52.53.55.55c4.08,2.92,19.49,1.71,24.76,3.85-8.36.5-44.49,8.33-49.25,5.5-2.03-1.21-2.84-3.29-.55-4.95,3.41-2.47,19.4-2.96,23.94-5.5.2.76.53.52.55.55Z" fill="#e3c43b"/><path d="M53.94,347.9c-.54,2.84-1.36,9.61-1.65,12.66-.66,6.96-2.05,11.23,2.48,17.61l.83-6.05c3.62-4.76,3.34-12.35,5.5-17.06l-4.95,22.84h9.36c-4.13-6.39-1.99-13.19-2.2-19.81,0-.21-.96-2.27-1.1-4.13-.13-1.72.09-3.5,0-5.23,3.3,8.78.1,18.57,3.3,27.52l1.38.83c6.1-.15.82-23.71,2.48-28.07-.08,6.79,3.49,20.66,1.1,26.69-.06.16-2.55.53-2.75,2.2,5.06,2.4,4.66-2.1,6.05-5.23l.55,1.1-1.1,4.95-1.1,1.1c-6.17-.05-25.91-1.01-30.54.55-2.38.8-2.25,5.56-2.48,7.7-.06.55-.58.61-.55,1.1-4.75.18-6.8,1.85-11.01,2.2-.36.03-.74-.03-1.1,0-2.24.21-16.43,1.17-17.06.28-.08-.11-.07-2.6,0-2.75.63-1.27,25.54.42,28.34-.83,1.6-.71.41-4.06.83-5.23,2.04-5.8,8.29-2.49,12.93-4.13l.83-30.27c.5-.52.98-.87,1.65-1.1-.03.18.03.37,0,.55Z" fill="#1f412d"/><path d="M22.57,336.35c-1.74,4.69-2.1,10.69-2.2,15.68,2-1.01,4.31-3.94,5.5-5.78,9.83,5.48,6.07,2.75,11.56-3.3-4.58,7.74-5.2,15.41-3.85,24.21-2.31-.83-.37-4.24-1.1-5.78-.41-.87-4.98-1.54-6.33-2.48-.56-.39-6.14-5.92-6.33-6.33-1.31-2.83.66-7.32,0-8.25-.35-.49-2.61-.1-3.58-.83-5.17-3.9-3.99-3.09-4.13-8.25,3.85-.08,7.46,4.36,10.46,1.1Z" fill="#e9f4f5"/><path d="M460.36,394.13c1.84.17-.94,1.58-1.1,1.65-5.52,2.36-15.82,2.37-22.01,2.75-48.72,3-97.95.02-146.66,3.58l6.88-1.38,26.97-1.1c39.54-1.45,79.39-.26,118.87-2.75,5.68-.36,11.73-.86,17.06-2.75Z" fill="#202422"/><path d="M438.07,386.98v.55c-17.12.74-34.3,1.71-51.46,2.2l-105.39.83c52.16-3.54,104.63-.83,156.84-3.58Z" fill="#202422"/><path d="M458.98,350.66c.17-.04.39.05.55,0,1.25-.4.04-1.69.83-2.2s.86,1.14,1.1,1.1c1.26-.21.76-1.19,1.1-1.1.9.22,5.96,3.63,7.7,4.4.83.37,1.77.39,4.13,1.65-3.76,5.24-11.69,5.54-17.61,6.05-.03-3.85-1.75-11.59-3.3-15.13,4.68-1.62,2.61,4.97,5.5,5.23Z" fill="#e9f4f5"/><path d="M394.59,391.93v1.65c-23.89.31-47.94-.24-71.82.55-12.53.41-25.16,2.25-37.7,1.93,36.35-3.69,73-3.14,109.52-4.13Z" fill="#202422"/><path d="M381.39,418.9l-.55,3.3c-7.99-.51-21.59,1.68-30.27,2.2-2-4.76,6.99-1.93,9.08-2.2,2.59-.33,6.1-1.2,9.91-1.65,4.1-.48,7.09-.95,11.83-1.65Z" fill="#eae2be"/><path d="M380.84,422.2c.16.01,3.27.62,2.75,1.65-21.21.75-42.16,2.05-63.29,3.85v-1.65c10.09-.54,20.18-1.05,30.27-1.65,8.68-.52,22.28-2.71,30.27-2.2Z" fill="#f9f7ec"/><path d="M39.63,359.46c-.99,2.7-3.04,8.79-6.05,7.7-1.35-8.8-.73-16.47,3.85-24.21,1.83-2.02,4.68-3.61,6.05-6.05,1.6.4,2.23-1.04,3.3-1.65.96-.55,12.26-6.78,12.66-4.68-15.94,5.42-29.9,17.68-24.49,36.05,1.68-2.31,2.7-5.06,4.68-7.15Z" fill="#1f412d"/><path d="M55.59,342.4c-.25.34-1.51,4.18-1.65,4.95-.67.23-1.15.58-1.65,1.1-2.16,2.23-3.59,6.12-5.23,8.81l3.03-8.25c-.65-2.4,1.43-.87,1.93-1.65.36-.57,3.17-7.34,3.58-4.95Z" fill="#1f412d"/><path d="M48.99,349.56l-5.23,8.25-.55-1.65c-.26,2.11-1.56,2.43-2.48,3.3.64-.72,1.23-3.12,1.65-3.58,1.49-1.59,1.86-.2,1.93-.28,1.32-1.53,2.61-5.49,4.68-6.05Z" fill="#1f412d"/><path d="M477.69,326.44c.09.07-.09.48,0,.55,7.16,5.43,12.69,13,8.53,22.01-1.78-13.78-12.76-25.04-27.24-23.94,3.9-1.16,10.1-1.73,14.03-.83,1.49.34,3.1,2.97,4.68,2.2Z" fill="#8da348"/><path d="M82.56,308.28c-.04.18.05.4,0,.55-.45,1.27,1.21,1.16,1.1,1.38-1.55,3.1-7.38,11.02-10.18,12.93-3.07,2.1-7.4,2.42-10.18,4.95-3.4-11.94,9.73-34.38,24.21-27.24-.77,2.25-4.58,5.67-4.95,7.43Z" fill="#8da348"/><path d="M54.49,317.64c-1.08-.35-1.52-1.45-2.2-2.2l2.75.28c-1.27-5.02-3.05-11.06-.28-15.68l1.93,2.48c-1-4.76.41-9.19,3.03-12.93,4.85,2.27,6.63,16.87,5.78,21.74-.21,1.18-3.24,6.37-3.85,8.25-.98,3.01-.98,3.73-.83,6.88l-14.03-5.78c4.22-.65,8.53-.52,12.38,1.38-1.56-1.21-4.42-6.73-4.68-4.4Z" fill="#8da348"/><path d="M82.56,308.28c.37-1.76,4.18-5.18,4.95-7.43-14.49-7.14-27.61,15.3-24.21,27.24-.03.03.07.65-.55.55-3.98-2.33-11.69-6.35-16.51-7.15-1.91-.32-2.46-.25-4.4,0-12.69,1.66-19.13,15.69-19.81,27.24,4.31-2.78,5.41-7.98,7.43-12.38l1.65,4.95c7.35-5.69,18.46-12.89,28.07-12.11-3.6.21-10.4,1.57-12.93,4.13-.85.86-1.05,2.09.55,1.93-1.07.62-1.71,2.05-3.3,1.65.26-.45,1.92-2.74.28-2.75-2.5.48-12.46,9.07-13.21,8.81-.43-.16-.75-3.23-1.1-3.85-1.48,2.2-2.14,4.94-3.58,7.15-1.19,1.84-3.51,4.77-5.5,5.78.1-4.99.47-11,2.2-15.68,6.33-17.09,19.08-14.46,32.19-17.06,1.69-.34-.4-.98-.28-1.65.26-2.33,3.12,3.19,4.68,4.4-3.85-1.89-8.16-2.03-12.38-1.38l14.03,5.78c-.15-3.15-.15-3.87.83-6.88.61-1.88,3.65-7.07,3.85-8.25.85-4.87-.93-19.47-5.78-21.74-2.62,3.74-4.03,8.17-3.03,12.93l-1.93-2.48c-2.78,4.63-1,10.67.28,15.68l-2.75-.28c-1.74-1.91-3.25-1.64-.83-4.4l1.93,1.93c-3.42-3.67,3.54-23.97,6.33-24.49,5.17-.97,6.29,16.69,7.15,19.81,3.96-11.48,31.93-14.74,15.68,0Z" fill="#1f412d"/><path d="M382.49,417.25c-27.82,1.46-60.69,2.48-87.78,7.7-1.14.22-3.59.38-3.03,2.2-82.9,5.34-166.33,10.8-249.02,17.06-6.05.46-17.74,2.1-21.19-4.13-4.87-8.81,9.51-13.46,15.41-15.96-3.28-1.9-25.26,1.42-25.32-2.2-.06-3.99,29.9-7.59,33.85-7.98,29.45-2.92,65.27-4.76,94.93-5.5,70.27-1.75,141.25-1.32,211.6-2.2,44.4-.55,88.87,1.06,133.18-1.1-1.42-1.82-7.56-1.45-10.18-1.65.96-1.66,10.06-1.46,11.28-1.1,1.84.54-1.12,2.25,0,2.75,4.11,1.83,19.25-.43,24.21,1.1,2.33.72,1.82,3.2,0,4.4-7.42,4.91-110.08,5.67-127.95,6.6Z" fill="url(#linear-gradient-2)"/><path d="M237.48,409.54c2.71-.23,5.53.17,8.25,0-51.08,7.27-103.92,5.31-155.74,7.15-19.35.69-38.72,2.28-58.06,3.03,59.14-6.67,119.19-3.25,178.58-6.88,9.05-.55,18.04-2.53,26.97-3.3Z" fill="#8da348"/><path d="M323.33,415.59c.93-.02,3.43-.51,3.3,1.1-46.42,1.95-92.44,9.16-138.96,10.18l135.66-11.28Z" fill="#8da348"/><path d="M254.81,364.96c-.03-.97-.9-2.41,0-2.75l33.02,43.75h-34.12c2.91-13.41,1.47-27.38,1.1-41Z" fill="#fefeff"/><path d="M424.31,351.76c-1.54,4-3.74,23.06-4.68,11.56-1.49,5-2.58.89-6.33,2.75-.81-1.16-.29-3.11,1.1-4.68,2.13-2.4,2.01,1.39,5.5-2.75,1.22-1.45,2.71-6.25,3.3-6.88.07-.07.75.04,1.1,0Z" fill="#e9f4f5"/><path d="M61.09,355.06c.23-.5.46-1.05,1.1-1.1.14,1.85,1.09,3.91,1.1,4.13.21,6.62-1.93,13.42,2.2,19.81h-9.36l4.95-22.84Z" fill="#fefeff"/><path d="M69.35,346.8v1.1c-.52-.45-1.14-1.25-1.65-1.38-.27,3.86-.07,9.85-2.75,12.66,2.89-9.01,1.8-17.4-1.38-26.14l-6.33,19.54c-1.4-7.43,3.35-14.59,6.33-21.19,2.4,5.34,2.82,10.13,5.78,15.41Z" fill="#194743"/><path d="M55.59,372.12l-.83,6.05c-4.52-6.38-3.14-10.65-2.48-17.61l3.3,11.56Z" fill="#fefeff"/><path d="M55.04,347.9l2.2-6.05,1.1-.28-2.2,7.15c-.6.63-1.04-.79-1.1-.83Z" fill="#1f412d"/><path d="M57.24,341.85l-2.2,6.05c-.13-.09-.76.05-1.1,0,.03-.18-.03-.37,0-.55.15-.77,1.4-4.61,1.65-4.95.15-.21,1.21-.69,1.65-.55Z" fill="#ccdad4"/><path d="M46.24,321.49h-4.4c1.94-.25,2.5-.32,4.4,0Z" fill="#c1c65e"/><path d="M442.47,361.66c1.7,3.44,6.04,14.85,5.5,18.16-.08.49.25,1.36-.28,1.65-2,.42-3.46-.63-5.23-1.1-.5-3.28,1.47-6.41,1.1-10.73-.24-2.81-2.02-7.04-3.3-9.63.1-.23-.05-.63.55-.55.46.8,1.02.93,1.65,2.2Z" fill="#fefeff"/><path d="M450.73,358.36c.25.59.4,1.33.55,1.65,2.51,5.56,6.61,10.83,8.25,15.13.8,2.09,1.88,11.84,3.03,12.38,3-1.36,5.19,1.61,5.5,1.65,3.99.52,24.41-2.52,26.42-1.1.45.32.45,2.98,0,3.3-1.15.81-24.16-.74-28.07,1.1-1.04,2.88-2.65,6.94-6.33,6.33,2.89-1.74,4.77-3.92,3.58-7.43-22.92,1.96-46.06,1.9-69.07,2.2v-1.65c22.47-.61,44.97-1.1,67.42-2.2-3.54-5.83-17.16-2.49-23.94-2.2v-.55c4.84-.25,9.7-1.19,14.58-1.1l-.55-3.3-164.82,1.93c23.56-.33,47.17-1.6,70.72-1.93s60.51,3.16,82.55,0c4.56-.65,2.15-.73,1.93-2.2,1.77.48,3.23,1.52,5.23,1.1.52-.29.2-1.16.28-1.65l1.38,1.65c1.8.27,6.11-1.96,7.15,0,.41.77-1.28,1.08-.83,2.48.98,3.03,7.29-4.56-.55-5.5,4.02-.57,3.58-.86,2.2-4.4-1.82-4.69-6.79-7.8-9.36-13.48l1.1-1.1c.54,1.4.57,3.13,1.65,4.13l-3.03-9.63c-1.16-.16-.66.6-.83,1.1-.12.38.29,1.13-.55,1.1-.5-2.01.06-1.73,0-2.2-.27-2.13-1.3-4.93-.55-6.88,1.07,1.16.81,4.96,1.1,5.5.25.47,1.68-.02,2.2,1.1.67,1.46,1.01,3.21,1.65,4.68Z" fill="#1e2f26"/><path d="M449.08,359.46c-.56-1.46-.77-3.42-2.2-4.4.16-.5-.33-1.26.83-1.1l3.03,9.63c-1.08-1-1.11-2.73-1.65-4.13Z" fill="#91b26d"/><path d="M464.76,388.63c.19-.13,1.21-.09,1.38.28.42.91-3.14.93-1.38-.28Z" fill="#9f9a7f"/><path d="M458.71,384.78c1.42-.75,1.59.98.55,1.1-.06,0-1.11-.8-.55-1.1Z" fill="#cde3b5"/><path d="M424.86,369.37h.55c.33,4.21,2.93-.3,2.75-2.75l1.65-1.1c-.19,1.35-.79,3.04-1.65,4.13,3.13.32,1.45-4.3,3.3-5.5l2.48,12.93h-9.36c-1.29-.52.28-6.49.28-7.7Z" fill="#fefeff"/><path d="M423.76,367.17c.91,3.93-2.58,6.7-2.2,1.38.02-.32,1.1-1.29,1.1-1.38.32-.03,1.07.05,1.1,0Z" fill="#e9f4f5"/><path d="M43.48,336.9c-1.38,2.44-4.23,4.04-6.05,6.05-5.49,6.05-1.73,8.78-11.56,3.3,1.43-2.22,2.1-4.95,3.58-7.15.35.62.67,3.7,1.1,3.85.75.27,10.71-8.33,13.21-8.81,1.65.01-.02,2.3-.28,2.75Z" fill="#b2dde4"/><path d="M343.41,260.95c-.09.23.05.75,0,1.1-42.84-14.03-113.33-14.29-158.22-8.81-5.21.64-24.39,5.29-27.52,4.95-2.86-.31,1.11-8.5,1.93-10.18,13.93-28.63,49.67-51.24,81.17-53.11,38.48-2.28,87.9,19.2,98.23,59.16l-27.52-2.75,27.79,4.13c1.4.89,1.08,5.51,4.13,5.5Z" fill="#fefeff"/><path d="M208.31,240.04l-20.91,3.85-22.29,2.48c14.17-3.47,28.85-3.92,43.2-6.33Z" fill="#202422"/><path d="M204.46,231.78l-17.06,4.4-18.99,3.58c11.49-4.59,24.17-4.92,36.05-7.98Z" fill="#202422"/><path d="M192.9,247.74c.91-.07,1.84.05,2.75,0-10.6,2.73-22.18,4.87-33.29,6.33.29-1.2,2.55-1.64,3.58-1.93,5.72-1.56,20.91-3.91,26.97-4.4Z" fill="#202422"/><path d="M216.01,201.52c.44-.04,1.22-.14,1.38.28-3.07.13-30.05,19.79-30.82,18.16,4.84-3.32,9.59-7.13,14.58-10.18,1.8-1.1,14.01-8.17,14.86-8.25Z" fill="#202422"/><path d="M293.06,224.63c9.63.98,19.76,1.02,28.89,4.68l-14.03-2.48-14.86-2.2Z" fill="#202422"/><path d="M271.6,200.42c2.26-.25,26.73,8.13,26.14,9.63-8.61-3.44-17.6-6.04-26.14-9.63Z" fill="#2f352d"/><path d="M301.31,231.78c8.46,1.63,17.61,1.55,25.59,5.23l-12.93-2.48-12.66-2.75Z" fill="#2f352d"/><path d="M281.5,208.12c8.58,1.77,17.31,3.44,25.59,6.33-.32,1.28-23.85-5.46-25.59-6.33Z" fill="#202422"/><path d="M201.7,222.98c1.09-.06,2.21.04,3.3,0-7.49,2.02-16.41,3.3-24.49,3.03,6.74-.61,14.58-2.66,21.19-3.03Z" fill="#202422"/><path d="M304.62,238.39c8.04,1.81,16.54,1.32,24.49,3.58l-12.93-1.38-11.56-2.2Z" fill="#54544e"/><path d="M195.65,229.03c1.02.99-1.78,1.55-2.2,1.65-5.26,1.22-13.98,2.35-18.99,1.93l21.19-3.58Z" fill="#202422"/><polygon points="315.62 244.44 335.16 248.57 317.82 246.09 315.62 244.44" fill="#202422"/><path d="M291.41,216.38c7.02,1.59,14.33,1.8,21.19,4.13l-10.73-1.38-10.46-2.75Z" fill="#2f352d"/><path d="M488.7,307.73c-12.91,6.43-27.84,9.64-38.52,20.09,9.06-4.03,18.82-7.89,27.52-1.38-1.57.77-3.19-1.86-4.68-2.2-3.94-.9-10.13-.34-14.03.83,14.48-1.1,25.46,10.16,27.24,23.94,4.16-9.02-1.37-16.58-8.53-22.01,4.31.8,11.1,9.27,11.56,13.21.69,5.9-4.44,18.9-3.58,25.87-4.1-2.67-6.03-9.56-9.91-12.11-.54-.36-1.02.74-1.38.55-2.36-1.26-3.3-1.28-4.13-1.65-1.75-.78-6.81-4.18-7.7-4.4-.34-.08.16.89-1.1,1.1-.24.04-.29-1.63-1.1-1.1s.43,1.8-.83,2.2l-.83-5.5c.58-.43,10.47,7.96,12.66,4.4,3.02,2.63,5.65,3.84,8.53,6.88,1.83,1.93,2.81,4.96,4.95,6.6,4.07-19.02-6.65-40.92-28.89-35.5-5.85,1.43-10.17,6.28-15.68,7.98,10.27-11.16,20.6-16.36,33.85-22.84.91-.45-.56-1.35,0-1.65,1.42-.76,4.27.26,4.95,0,2.71-1.03,6.86-4.31,9.63-3.3Z" fill="#1f412d"/><path d="M458.98,350.66c-2.89-.25-.83-6.85-5.5-5.23,1.55,3.54,3.28,11.28,3.3,15.13.01,1.57-.73,3.16-1.93,4.95-.05-2.2-.54-5.72-3.58-5.5-.15-.32-.3-1.07-.55-1.65,2.35-2.4,2.43.95,4.4,1.38.82-2.59-3.39-16.71-1.38-17.34,3.53,2.03,4.27,4.49,5.23,8.25Z" fill="#1f412d"/><path d="M439.17,326.99c-.44,2.88-2.7,4.89-2.48,7.7,9.95-22.27,32.13-43.87,57.78-29.72-.61,1.28-3.56.16-4.4.55-.51.23-.2,1.06-.28,1.1-.81.41-.3.7-1.1,1.1-2.77-1.01-6.92,2.27-9.63,3.3-.68.26-3.54-.76-4.95,0-.56.3.91,1.2,0,1.65-13.25,6.48-23.58,11.68-33.85,22.84,5.51-1.7,9.83-6.55,15.68-7.98,22.25-5.43,32.97,16.47,28.89,35.5-2.15-1.64-3.12-4.68-4.95-6.6-2.88-3.04-5.51-4.25-8.53-6.88-2.19,3.56-12.08-4.83-12.66-4.4l.83,5.5c-.16.05-.38-.04-.55,0-.96-3.76-1.69-6.22-5.23-8.25-2.01.63,2.2,14.75,1.38,17.34-1.97-.43-2.05-3.77-4.4-1.38-.64-1.47-.98-3.22-1.65-4.68-.52-1.12-1.95-.63-2.2-1.1-.29-.54-.03-4.34-1.1-5.5-.75,1.95.28,4.75.55,6.88-.33.03-1.08-.05-1.1,0l-1.65,5.23-3.03-1.93-.83,1.38c.56.41.68.09,1.1.83-.6-.08-.45.32-.55.55-.86,1.97,4.59,13.5,1.38,17.06-.89-1.24-5.25.57-6.33-.83-1.63-2.12-3.74-18.58-4.68-18.44-.39,2.54-.47,5.16-.83,7.7l-1.65,1.1c-.07-.87-.42-1.47-.83-2.2-.4,2.71.1,3.17-1.93,4.95h-.55c-.01-1.49.12-2.57-.83-3.85-.54.06-.12,1.39-.28,1.65-.03.05-.78-.03-1.1,0,.19-4.32-.05-4.27,1.1-8.81.1.88-.28,2.01.28,2.75.32,0,.7-2.65-.28-2.75.5-1.95.95-5.17,1.65-6.88,1.73-4.21,5.6-8,6.33-11.83-.66-.27-7.04,11.1-7.43,12.11-.35.04-1.04-.07-1.1,0-2.11.86-3.77,8-5.78,7.7-.75-.11-.63-1.9-1.65-1.65-.61.15-2.29,6-4.13,5.78-2.96-6.71,2.66-27.26,10.18-28.89,3.88-.84,6.66,2.72,10.18,1.93-12.11-9.24-16.61,3.22-21.74,12.38-.22-1.94-2.77-8.89-2.48-10.18.43-1.86,8.11-7.77,10.46-4.95-.31-4.93-7.12.25-9.91,2.48l-1.65-6.88c-2.25,2.61-6.42-8.1-6.05-9.36,12.05-11.37,26.73-1.52,32.47,11.01.22.47,1.17,8.82,2.75,6.05.55-.97-6.96-18.49-8.25-20.36-.74-1.07-4.8-5.49-5.78-6.33-1.28-1.11-2.12.07-2.2,0-3.7-3.23-7.85-6.09-10.18-10.46-.19-.36.71-.7.55-1.1-.76-1.85-.97-1.68-2.75-2.48-.18-2.38,13.39-1.03,15.13-.28.28-.09-1.32-2.91,1.65-.55.86.68-.33,1.33-.28,1.38.72.56,1.72.1,1.93.28,9.81,8.24,11.13,17.7,13.48,29.72Z" fill="#8da348"/><path d="M433.94,338.55c2.47-1.02,3.23,16.8-2.2,17.61,4.15-5.65,4.24-11.05,2.2-17.61Z" fill="#194743"/><path d="M445.22,353.96c-.97,1.84.07,6.27-2.75,7.7-.63-1.27-1.19-1.4-1.65-2.2-.42-.73-.54-.41-1.1-.83l.83-1.38,3.03,1.93,1.65-5.23Z" fill="#29573d"/><path d="M440,337.45l12.38,5.23c-.25.73-12.11-4.03-12.38-5.23Z" fill="#29573d"/><path d="M428.16,366.62c.18,2.46-2.42,6.96-2.75,2.75,2.03-1.78,1.53-2.24,1.93-4.95.41.74.76,1.33.83,2.2Z" fill="#284d25"/><path d="M440.55,339.1c.29-.17,1.5,1.55,0,2.2-.43-.41-.47-1.93,0-2.2Z" fill="#31693f"/><path d="M423.76,358.36c.97.1.59,2.76.28,2.75-.55-.74-.18-1.87-.28-2.75Z" fill="#1f412d"/><path d="M489.25,340.2c-.46-3.94-7.24-12.41-11.56-13.21-.09-.07.09-.48,0-.55-8.7-6.52-18.46-2.65-27.52,1.38,10.68-10.45,25.61-13.66,38.52-20.09.8-.4.3-.69,1.1-1.1h7.43c-12.27-10.92-34.59-9.14-44.58,4.4l-.28-21.19-6.6,6.05c.9-2.57,6.84-20.77,4.13-21.74-9.72,6.52-17.21,14.89-18.71,26.97-1.4-1.42-7.91-7.59-9.36-7.7-.42-.03-2.06,1.66-2.2,1.65-3.93-.33-21.34-2.95-9.63,3.85.16.4-.74.74-.55,1.1l-3.85.28c3.06.69,5.36,3.27,7.7,5.5.45.43-1.07.6.28,1.93,2.68,2.65,5.37-.61,3.58,4.95-.17.54.11,1.53,0,2.2-6.73-1.54-12.46.27-17.34,4.95-10.06-16.85-19.66-38.74-36.87-49.53-6.07-3.81-12.81-6.05-19.54-8.25.05-.35-.09-.87,0-1.1.38-1-4.49-16.18-5.5-18.44-9-20.11-31.49-33.35-50.63-42.38.91-4.05-1.19-22.47,0-24.76.25-.48,7.18-3.04,6.6-7.7-2.12-1.4-13.47,1.34-14.31-.55-3.05-6.85,4-7.44,5.5-11.56,2.13-5.85-3.04-6.24-7.15-8.25l-1.65-16.51c-2.96-2.39-2.5-5.23-3.3-7.7-.17-.51-2.04-1.69-2.2-2.2-.41-1.28,1.14-2.08,1.1-2.2-.11-.35-2.4-2.57-2.75-3.85-.23-.82,1.15-1.47,1.1-1.65-2.75-10.14-8.6-33.49-13.76-42.1,65.9-.05,134.7,12.55,184.08,58.89,41.48,38.92,59.87,92.08,62.46,148.31.29,6.41.47,56.92-1.93,58.61-.51.36-10.53.46-11.83,3.3Z" fill="#b2dde4"/><path d="M421.01,238.94c-1.14.46-1.57-.52-1.65-.55-1.29.04-3.87-4.56-4.13-4.4-.67.41.11,1.74-.55,2.2-1.15.81-6.99-6.32-1.1-9.91,2.5-1.52,6.92-.67,7.7-1.1.44-.24-.97-6.62,4.95-7.7,8.83-1.62,9.39,7.03,10.46,6.6-6.11-13.49,17.49-18.8,23.39-7.98,2.17,3.97.87,8.17,1.1,8.81.17.46,6.8-1.7,8.81,2.75,3.85,8.56-7.86,11.06-11.28,4.13,6.21,11.89-20.46,18.4-25.32,8.81v3.85c-5.8-.19-14.02-1.84-10.46-9.36-2.15.81-2.13,2.27-1.93,3.85Z" fill="#fefeff"/><path d="M421.01,238.94c-.2-1.59-.23-3.04,1.93-3.85-3.57,7.51,4.66,9.17,10.46,9.36v-3.85c4.86,9.59,31.52,3.09,25.32-8.81,3.42,6.93,15.13,4.44,11.28-4.13-2-4.45-8.64-2.29-8.81-2.75-.23-.63,1.07-4.83-1.1-8.81-5.9-10.82-29.5-5.51-23.39,7.98-1.07.43-1.62-8.22-10.46-6.6-5.93,1.09-4.51,7.46-4.95,7.7-.78.43-5.21-.42-7.7,1.1-5.89,3.59-.05,10.72,1.1,9.91.66-.47-.12-1.79.55-2.2.26-.16,2.84,4.44,4.13,4.4-5.19-1.62-10.82-1.73-9.36-9.08,1.1-5.53,7.08-4.1,9.63-5.23,1.32-.58.6-3.08,1.38-4.13,4.51-6.11,12.08-1.35,13.48-1.93.31-.13,2.25-4.23,3.85-5.5,6.15-4.9,18.94-4.39,22.84,3.03,1.29,2.46,1.19,7.31,1.65,8.25.26.52,7.83-1.16,8.81,5.5,1.52,10.36-9.45,6.17-11.01,7.7s-2.2,5.53.83,5.78c3.28.27,2.87-4.12,4.68-4.68-.59,9.58-7.38,3.06-7.98,3.03s-6.86,4.48-10.46,4.95c-1.9.25-15.33-.26-17.06-.55-3.88-.65-9.05-2.05-9.63-6.6Z" fill="#202422"/><path d="M348.64,85.4c6.25-1.05,6.91,3.61,7.7,3.85.4.12,5.53-1.43,8.25-1.1,4.68.57,11.69,5.79,13.48,10.18.64,1.56,1.2,7.88,1.65,8.25.64.53,4.56-1.78,7.15,1.65.74.98.99,3.69,1.1,3.85,1.49,2.23,5.27,2.85,3.85,7.7-1.43,4.87-11.69,2.43-12.93,3.03-1.14.55-3.36,6.29-9.36,7.7-3.87.91-10.47-.7-11.01-.55-1.07.3-2.35,5.73-7.15,3.3-1.04-.52-1.62-2.59-2.2-2.75-.27-.08-3.89,1.37-5.5,1.1-2.41-.4-5.46-2.56-6.6-2.75s-6.49,2.67-9.91-1.1.55-7.94.28-9.08c-.74-3.07-9.9-2.27-10.46-7.15-.67-5.84,7.32-6.14,7.7-7.15s-1.6-4.61,1.93-7.43c4.64-3.71,10.98-.74,12.11-1.1.72-.23,4.02-9.46,9.91-10.46Z" fill="#202422"/><path d="M358.55,89.25c11.85-1.91,22.16,8.71,19.54,20.64,5-6.02,11.43-.64,7.7,6.05,3.19-4.38,5.05-.8,4.95,3.3-3.95,4.41-11.04,3.55-15.13.28.75,3.2,3.15,2.28.83,5.78-3.96,5.97-20.84,6.78-23.39-1.38,2.63,6.25-7.63,7.46-12.11,6.05-6.07-1.9-7.86-10.35-4.68-15.13-4.73,5.17-14.02,3-12.11-4.95,1.59-6.61,8.05-1.71,8.53-1.93.17-.08-.14-2.26.83-3.58,3.99-5.44,12.68-7.81,14.58.28-1.76-6.48,4.05-14.37,10.46-15.41Z" fill="#fefeff"/><path d="M348.64,86.5c2.03-.35,6.92.09,6.33,3.03-.07.35-4.44,3.19-5.5,4.4-.9,1.03-2.46,5.59-3.03,5.78-.27.09-5.28-.94-5.5-1.1-3.44-2.47,3.95-11.47,7.7-12.11Z" fill="#91d1db"/><path d="M331.03,95.85c1.27-.24,9.42-.48,8.53,2.48-6.57,2.32-6.71,10.92-14.31,5.5-.85-3.67,2.25-7.3,5.78-7.98Z" fill="#b2dde4"/><path d="M331.03,118.42c5-.49,1.99.8,2.48,3.03.22,1.02,3.09,6.99,1.93,7.43-8.03,2.53-12.13-9.71-4.4-10.46Z" fill="#b2dde4"/><path d="M324.43,105.76c.5,0,1.15-.17,1.38.28-3.93,1.69-1.11,8.67-4.68,8.53-4.83-.2-3.26-8.79,3.3-8.81Z" fill="#b2dde4"/><path d="M354.14,128.32c4.67-.38,2.67,5.98-1.65,4.4-3.05-1.11.11-4.28,1.65-4.4Z" fill="#b2dde4"/><path d="M489.8,306.63c.08-.04-.23-.87.28-1.1.84-.39,3.8.73,4.4-.55-25.66-14.15-47.83,7.45-57.78,29.72-.23-2.82,2.04-4.83,2.48-7.7.76-3.93,11.49-13.37,12.11-15.13s1.13-20.05.28-20.64c-6.14,5.35-11.17,16.58-12.38,24.49-.66,4.33.58,7.46,0,11.28-2.35-12.02-3.68-21.48-13.48-29.72-.21-.18-1.2.29-1.93-.28-.06-.04,1.13-.7.28-1.38-2.97-2.36-1.38.46-1.65.55-1.75-.75-15.31-2.1-15.13.28,1.78.8,1.99.62,2.75,2.48-11.71-6.8,5.7-4.18,9.63-3.85.14.01,1.78-1.69,2.2-1.65,1.45.12,7.96,6.28,9.36,7.7,1.5-12.08,9-20.44,18.71-26.97,2.71.97-3.23,19.17-4.13,21.74l6.6-6.05.28,21.19c9.99-13.54,32.31-15.32,44.58-4.4h-7.43Z" fill="#1f412d"/><path d="M448.8,275.81c1.74.38.05,7.65-.28,9.08-2.21,9.67-8.31,21.11-10.73,31.09-1.96-9.24-6.73-11.2-4.13-21.19.49-1.87,4.95-11.57,6.88-11.28.15.02.69,1.78,1.1,1.65.57-.18,4.26-9.99,7.15-9.36Z" fill="#8da348"/><path d="M256.46,71.09c5.16,8.61,11.01,31.96,13.76,42.1.05.18-1.33.83-1.1,1.65.35,1.28,2.65,3.5,2.75,3.85.04.12-1.51.92-1.1,2.2.16.51,2.03,1.69,2.2,2.2.81,2.47.34,5.32,3.3,7.7l1.65,16.51c4.11,2.01,9.29,2.4,7.15,8.25-1.5,4.12-8.55,4.71-5.5,11.56.84,1.89,12.19-.85,14.31.55.58,4.66-6.35,7.22-6.6,7.7-1.19,2.29.91,20.72,0,24.76,19.14,9.03,41.63,22.26,50.63,42.38,1.01,2.26,5.89,17.44,5.5,18.44-3.04,0-2.72-4.61-4.13-5.5l-27.79-4.13,27.52,2.75c-10.34-39.96-59.75-61.44-98.23-59.16-31.51,1.87-67.24,24.47-81.17,53.11-.82,1.68-4.78,9.87-1.93,10.18,3.13.34,22.31-4.32,27.52-4.95,44.89-5.49,115.38-5.22,158.22,8.81,6.72,2.2,13.47,4.45,19.54,8.25,17.21,10.79,26.81,32.68,36.87,49.53,4.88-4.69,10.61-6.49,17.34-4.95,4.73,1.08,7,4.41,11.01,6.33-1.77-5.68-4.78-6.87-10.46-7.15l4.13-.28c.68-2.63-3.13-1.57-4.68-1.1,1.8-5.56-.89-2.3-3.58-4.95-1.34-1.33.17-1.5-.28-1.93-2.34-2.24-4.65-4.82-7.7-5.5l3.85-.28c2.33,4.37,6.48,7.23,10.18,10.46.08.07.92-1.11,2.2,0,.97.84,5.04,5.26,5.78,6.33,1.29,1.88,8.81,19.39,8.25,20.36-1.58,2.76-2.54-5.58-2.75-6.05-5.74-12.53-20.41-22.38-32.47-11.01-.37,1.25,3.81,11.97,6.05,9.36l1.65,6.88c-3.19-4.16-4.01-4.78-1.65.83,1.47,1.96,1.52-.72,1.65-.83,2.78-2.23,9.6-7.41,9.91-2.48-2.35-2.81-10.03,3.09-10.46,4.95-.3,1.3,2.26,8.24,2.48,10.18,5.13-9.16,9.63-21.63,21.74-12.38-3.52.79-6.3-2.77-10.18-1.93-7.52,1.64-13.14,22.19-10.18,28.89,1.84.22,3.52-5.63,4.13-5.78,1.02-.25.9,1.54,1.65,1.65,2.01.29,3.67-6.84,5.78-7.7-.59.63-2.08,5.43-3.3,6.88-3.49,4.14-3.37.35-5.5,2.75-1.39,1.56-1.91,3.52-1.1,4.68.09.12-.05.76,0,1.1-25.35-.29-51.21-.32-76.77-.55-25.5-.23-51.02.59-76.5,0l-.55,1.1,30.82,39.07c22.01-.03,44.06-1.78,66.04-2.2,37.04-.71,82.5-3.89,118.6-1.1,2.62.2,8.76-.17,10.18,1.65-44.31,2.16-88.78.55-133.18,1.1-70.35.88-141.33.45-211.6,2.2l-89.15-2.75c-5.28-2.15-20.69-.93-24.76-3.85,64.73,3.87,129.66,5.7,194.54,4.95l30.27-41.27-27.79,41,28.34.28.28-34.67h1.1c-.5,10.73-.77,21.43-.55,32.19,1.31-.19,1.56-4.46,1.65-5.5.95-10.52.08-23.3-.55-33.85h1.1c.37,13.62,1.81,27.59-1.1,41h34.12l-33.02-43.75c.05-.96,1.35.32,1.65.55.74.55,1.66,4.97,4.95,1.93-2.02-9.05,3.17-32.62-13.48-28.89-10.26,2.3-5.79,21.32-8.53,27.79.23-7.32-2.04-25.24,6.88-28.34,3.81-1.32,10.16-.71,12.93,2.48,4.85,5.56,2.27,24.97,3.3,26.42s7.97.92,8.25,0c-1.53-15.22.77-39.58-12.38-49.8-9.04-7.02-12.98-5.26-20.91,2.2-14.13,13.29-6.36,30.28-11.01,46.78,1.96-17.77-3.13-37.66,12.66-50.08,8.57-6.74,13.69-5.75,22.01,1.65,10.57,9.4,8.8,31.76,10.18,44.85.04.41.42,5.26,1.65,4.4-1.35-12.05,1.27-32.84-3.85-43.48-1.97-4.08-13.55-14.61-17.89-15.13-6.2-.76-21.06,9.15-20.64,16.23l-1.65-1.65-2.2,6.05c-.67-7.28,7.01-10.19,6.6-17.06,1.14,6.75,3.31,1.53,4.68-1.93l1.1,2.2c5.64-3,3.66-4.45,3.85-9.91l1.1,6.6c2.71-3.25,10.53.32,11.01,0,.6-.4,1.35-7.56,1.65-8.81,2.08,3.78-2.77,8.84,1.65,11.56l1.1-3.85c.08,3.05.74,4.38,2.75,6.6l1.1-7.15c.7,3.8-.65,8.14,2.75,11.01l.83-8.53c-1.52,8.49,4.13,13.81,5.5,21.46,2.1,11.7.45,24.81,2.48,36.6,44.38.38,88.83,2.08,133.18,1.65l3.03-1.38c-1.52-24.47-12.65-46.97-25.87-67.14-6.36-9.7-13.84-20.54-23.94-26.69-41.3-25.16-155.1-23.25-201.97-12.11-52.5,12.48-57.92,65.59-75.67,107.86-.59-.4-1.15-.43-1.1-1.38.2-3.78,7.71-16.63,7.7-21.46,0-2.28-.78-2.44-2.2-3.85,4.97-.77,7.75-7.82,1.65-10.18-.45-.17-.66-.5-1.1-.55.06-.01-.21-.89.28-1.1.38-.16,4.52,2.89,5.23,2.48.51-.29,3.98-10.44,3.85-11.01-.59-2.57-13.88-4.93-16.23-4.13-.63.21-7.17,7.82-9.36,9.36-.7.49-8.3,5.01-8.81,4.95-.81-.09-.75-1.6-.83-1.65.62.1.52-.52.55-.55,2.78-2.53,7.11-2.85,10.18-4.95,2.8-1.92,8.63-9.83,10.18-12.93.11-.21-1.55-.1-1.1-1.38,5.71.47-2.27,5.2.28,6.05,5.6-.08,11.31,1.11,15.96,4.4,7.73-19.3,20.79-44.59,39.62-55.03,2.68-1.49,15.77-5.59,16.23-6.33.4-.64.97-5.73,1.65-7.15,12.41-25.92,33.91-41.92,59.99-52.83-.71-4.15,1.95-19.17.55-22.01-.22-.45-6.54-2.34-5.5-7.15,1.68-.87,12.29-.58,12.66-1.1.16-.23,1.14-5.23,1.1-5.5-.39-2.7-15.16-7.3,0-14.86.61-4.83,1-11.96,2.2-16.51.63-2.37,3.32-4.18,3.85-6.05,1.39-4.86,1.51-14.11,3.3-19.81.85-2.7,3.62-4.78,3.85-5.5,2.79-8.58,4-18.82,8.81-26.69,3.07-5.02,5.59-7.93,9.36-1.65Z" fill="#202422"/><path d="M417.16,314.88c.11-.67-.17-1.67,0-2.2,1.54-.47,5.35-1.53,4.68,1.1l-4.13.28c5.68.28,8.69,1.47,10.46,7.15-4.01-1.92-6.28-5.25-11.01-6.33Z" fill="#91b26d"/><path d="M227.57,148.69c4.78-.73,45.67-.81,50.08,0,1.63.3,6.97,3.09,6.88,5.23-.06,1.28-5.35,6.82-6.33,6.88-.67.04-4.14-2.51-5.5-2.75-6.53-1.13-37.52-1.52-42.93,0-1.04.29-4.13,3.35-4.4,3.3-.36-.07-5.08-4.89-5.23-5.23-1.84-4.18,3.9-6.89,7.43-7.43Z" fill="#fefeff"/><path d="M244.63,158.04c5.15-.27,38.89-2.26,33.85,9.08-1.08,2.43-47.17.86-53.11,1.38-.9-11.46,11.14-10.03,19.26-10.46Z" fill="#fefeff"/><path d="M251.78,98.05c2.06-.07,12.38.75,13.48,1.93.3,4.46,4.23,11.06,2.2,14.86l2.2,3.3c-11.35-2.66-26.66-5.09-36.6,1.93-1.84-1.33,1.69-3.84,2.75-4.4,8.24-4.41,22.09-1.97,31.09-1.38l-8.53-1.93c-8.66.15-18.2-1.11-25.59,4.13,5.82-9.94,23.55-5.94,33.29-5.23l-7.7-2.2c-8.19.1-16.77-.94-24.21,3.3,3.29-7.17,16.74-6.99,23.66-6.6,1.15.06,6.79,1.71,7.15,1.65,3.28-.51-4.42-1.82-4.95-2.2-8.28-.78-17.49-1.19-24.76,3.3,4.21-9.54,20.39-6.41,29.17-5.5-8.22-3.07-21.47-3.67-28.62,2.2,1.16-6.11,10.73-6.99,15.96-7.15Z" fill="#fefeff"/><path d="M286.45,168.5c1.24,0,5.27-.47,5.78.83l-3.03,4.68h-74.84c-.98-.92-2.68-4.32-1.1-4.95,21.25.4,42.58,1.03,63.84.55,2.47-.06,6.94-1.11,9.36-1.1Z" fill="#fefeff"/><path d="M242.98,130.52c4.53-.35,30.06,1.23,32.19,4.13,1.2,1.62-.57,4.12,1.1,6.05-16.03-2.33-33.96-6.45-49.25.83,10.27-11.45,33.58-6.13,47.33-3.85l-7.7-2.75c-12.8-.6-27.64-3.76-39.07,3.3,2.27-5.39,10.07-7.29,15.41-7.7Z" fill="#fefeff"/><path d="M244.08,116.77c3.83-.46,23.34.02,25.59,2.48.24.26,2.37,6.3,2.2,6.6-13.07-2.26-27.11-5.36-39.9-.28,8.58-8.04,22.8-4.6,33.57-4.4l-8.25-1.65c-8.63-.18-16.78-.43-24.76,3.3.6-3.73,8.35-5.67,11.56-6.05Z" fill="#fefeff"/><path d="M236.37,143.18c11.49-1.52,29.96.59,41,4.13l-50.91.28c1.74-2.13,7.23-4.05,9.91-4.4Z" fill="#fefeff"/><path d="M242.43,138.23c4.79-.33,29.25,1.26,32.47,3.3,1.31.83,1.48,2.26,1.93,3.58-15.96-1.28-34.67-6.68-49.8.28-1.75-4.83,11.83-6.91,15.41-7.15Z" fill="#fefeff"/><path d="M240.78,127.22c6.24-.77,17.87.47,24.21,1.65,2.17.4,11.76,1.5,10.18,4.13-14.89-2.36-33.26-6.67-47.05,1.38.86-4.32,8.93-6.69,12.66-7.15Z" fill="#fefeff"/><path d="M241.33,123.92c4.43-.54,26.95.86,30.27,2.75.6.34,2.18,2.52,1.93,3.03-14.6-1.76-31.75-7.74-44.85,1.38.74-4.45,8.69-6.67,12.66-7.15Z" fill="#fefeff"/><path d="M251.23,93.65c3.15-.2,17.11.86,12.11,4.95-7.45-1.48-16.78-2.35-23.66,1.1-.44-4.09,8.43-5.86,11.56-6.05Z" fill="#fefeff"/><path d="M253.71,364.96c.63,10.55,1.5,23.32.55,33.85-.09,1.04-.35,5.31-1.65,5.5-.22-10.76.05-21.46.55-32.19l.55-7.15Z" fill="#fefeff"/><path d="M246.28,86.5c3.73-.66,12.66-.37,15.68,2.48-6.4.34-14.54-2.08-20.09,1.93-1.33-2.73,2.45-4.06,4.4-4.4Z" fill="#fefeff"/><path d="M250.13,89.25c3.94-.32,8.83.05,12.38,1.93-7.12.42-14.83-2.03-21.19,2.48-.7-3.04,6.9-4.25,8.81-4.4Z" fill="#fefeff"/><path d="M251.23,91.45c1.07-.07,15.95,1.34,12.11,3.3-7.51-2.9-17-2.53-23.94,1.93,1.36-3.24,8.69-5.03,11.83-5.23Z" fill="#fefeff"/><path d="M247.93,84.3c3.79-.39,9.71.08,12.93,1.93l-17.34.28c-2.51-.9,3.91-2.15,4.4-2.2Z" fill="#fefeff"/><path d="M245.73,80.44c2.75-.75,11.29-.08,14.03,1.38l-14.58.28-.83-.83c.44-.06,1.15-.76,1.38-.83Z" fill="#fefeff"/><path d="M245.73,82.65h10.46l4.13,1.38c-1.85-.45-16.95.17-16.51-.55l1.93-.83Z" fill="#fefeff"/><path d="M246.28,78.24c1.15-.35,13.46.04,12.93,1.93l-14.03-.28c-.49-.4,1.01-1.62,1.1-1.65Z" fill="#dfe0e0"/><path d="M249.58,76.04c2.87.06,6.07-.45,8.53,1.38l-11.83.28,3.3-1.65Z" fill="#fefeff"/><path d="M248.48,72.74c1.14-.35,6.76-.31,7.98.83l-8.53.83c-.75-.26.1-1.51.55-1.65Z" fill="#fefeff"/><path d="M251.78,69.99c.33-.03,4.67.68,4.13,1.93l-6.88.28c-1.77-.72,2.28-2.16,2.75-2.2Z" fill="#fefeff"/><path d="M408.35,336.35c-.13.11-.18,2.78-1.65.83-2.36-5.61-1.54-4.99,1.65-.83Z" fill="#7e9b80"/><path d="M252.06,75.49l-1.1-1.1,6.05.83c-1.58.58-3.33.16-4.95.28Z" fill="#dfe0e0"/><path d="M250.96,74.39l1.1,1.1c-.55.04-5.44.54-5.5.28l4.4-1.38Z" fill="#fefeff"/><path d="M252.88,68.34c.46-.28,1.41.75,1.38.83-.42.91-2.61-.08-1.38-.83Z" fill="#babdb6"/><path d="M229.22,174.55c18.41-.76,38.04,1.74,56.68,0l.28,24.49-31.09-5.78c-12.61-.19-25.14,1.34-37.42,3.85l-.28-21.19c.33-.61,10.32-1.31,11.83-1.38Z" fill="#fefeff"/><path d="M231.42,181.7l.55,8.25c-2.54-1.89-1.19-5.63-.55-8.25Z" fill="#050a0b"/><path d="M250.13,181.7c.43,2.51.71,6.34,0,8.81-1.63-2.3-.9-6.36,0-8.81Z" fill="#202422"/><path d="M261.14,181.7c.59.65,1.13,8.3,0,8.25-1.75-2.58-.25-5.53,0-8.25Z" fill="#050a0b"/><path d="M273.25,182.26l.55,7.7c-2.63-.83-1.24-5.84-.55-7.7Z" fill="#050a0b"/><path d="M255.09,181.7c1.68,1.55.69,5.7.55,7.7-1.68-1.53-.69-5.69-.55-7.7Z" fill="#050a0b"/><path d="M224.82,180.6c-.13,2.41,1.51,6.18,0,8.25-.89-2.73-1.32-5.54,0-8.25Z" fill="#050a0b"/><path d="M237.48,181.7c1.55,1.89.79,5.48.55,7.7-1.68-1.53-.69-5.69-.55-7.7Z" fill="#050a0b"/><path d="M267.19,182.26c1.67,1.31.7,5.34.55,7.15-1.67-1.31-.7-5.34-.55-7.15Z" fill="#202422"/><path d="M244.08,181.7c.46,2.47.46,5.23,0,7.7-1.32-1.64-1.33-6.05,0-7.7Z" fill="#202422"/><path d="M279.3,181.15c.4,0,.47,6.31,0,7.15-.43,0-.43-7.15,0-7.15Z" fill="#202422"/><path d="M80.36,328.64l3.03,3.3c.52-4.15,4.22.3,7.15,1.1l-.83-2.75c6.09,2.37,3.32,9.41-1.65,10.18,1.42,1.42,2.2,1.57,2.2,3.85,0,4.83-7.5,17.68-7.7,21.46-.05.94.51.98,1.1,1.38.11.07.64-.08.55.55-5.9.28-7.21-2.05-9.91,3.3-.48.95-.39,1.29-.55,1.65-1.39,3.13-.99,7.63-6.05,5.23.21-1.67,2.69-2.04,2.75-2.2,2.38-6.03-1.18-19.9-1.1-26.69h.55c4.62,5.06,6.63,10.88,10.18,16.51,8.19-10.25,5.15-31.77-7.98-36.32l-.28-1.1c4.35,1.06,6.91-.72,9.36,3.85.53-.17-.66-2.81-.83-3.3Z" fill="#e9f4f5"/><path d="M88.61,329.74c.44.06.65.38,1.1.55l.83,2.75c-2.93-.8-6.64-5.25-7.15-1.1l-3.03-3.3c-.02-.06-.93.06,0-1.1,1.29.34,7.58,3.47,7.98,3.3.49-.21.22-1.09.28-1.1Z" fill="#29573d"/><path d="M80.36,327.54c-.93,1.16-.02,1.04,0,1.1.16.49,1.35,3.13.83,3.3-2.44-4.57-5.01-2.79-9.36-3.85l.28,1.1c-1.01-.35-3.45-.16-4.13-1.1,2.48,1.08,7.29-2.26,7.7-2.2.14.02.92,2.07,1.65,2.2.54.09,1.63-.92,3.03-.55Z" fill="#1f412d"/><path d="M74.85,371.57v.55l-1.1.55c.16-.36.07-.7.55-1.65l.55.55Z" fill="#737d75"/><path d="M82.28,335.8l1.1,2.75c-.92-1.13-2.67-1.73-1.1-2.75Z" fill="#1f412d"/><path d="M69.9,349c-.09-.1-.5-1.05-.55-1.1v-1.1c1.11,1.98,4.11,4.78,5.5,6.88,2.31,3.5,2.51,9.75,4.68,2.48l2.75,3.3c3.89-10.94-.28-24.02-10.18-30.27,13.13,4.55,16.17,26.07,7.98,36.32-3.56-5.63-5.56-11.45-10.18-16.51Z" fill="#1f412d"/><path d="M80.08,358.36c.86.04,1.02,4.64-.55,4.95l.55-4.95Z" fill="#cde3b5"/><path d="M446.32,353.96c.06.47-.5.19,0,2.2.54,2.2.79,2.5,1.65,4.4,2.57,5.68,7.53,8.79,9.36,13.48,1.37,3.54,1.82,3.83-2.2,4.4,7.84.95,1.53,8.53.55,5.5-.45-1.4,1.23-1.71.83-2.48-1.04-1.96-5.36.27-7.15,0l-1.38-1.65c.54-3.31-3.8-14.72-5.5-18.16,2.82-1.43,1.78-5.86,2.75-7.7.03-.05.77.03,1.1,0Z" fill="#caa267"/><path d="M449.08,359.46l-1.1,1.1c-.86-1.91-1.11-2.2-1.65-4.4.84.03.43-.72.55-1.1,1.44.98,1.64,2.94,2.2,4.4Z" fill="#507444"/><path d="M451.55,377.07c1.01-.13,2.03.62,3.03.83l-4.13.28c-.58-.28,1.02-1.09,1.1-1.1Z" fill="#755640"/><path d="M439.17,326.99c.58-3.82-.66-6.95,0-11.28,1.21-7.91,6.24-19.14,12.38-24.49.86.59.32,18.93-.28,20.64s-11.34,11.2-12.11,15.13Z" fill="#8da348"/><path d="M449.9,297.27c1.53.58-1.09,4.35-2.2,4.4l2.2-4.4Z" fill="#194743"/><path d="M247.11,72.74c-4.81,7.87-6.01,18.11-8.81,26.69-.23.72-3.01,2.81-3.85,5.5-1.79,5.7-1.92,14.95-3.3,19.81-.53,1.87-3.23,3.68-3.85,6.05-1.2,4.55-1.59,11.68-2.2,16.51-15.16,7.56-.39,12.16,0,14.86.04.28-.94,5.28-1.1,5.5-.37.52-10.98.23-12.66,1.1-1.04,4.81,5.28,6.71,5.5,7.15,1.4,2.85-1.26,17.87-.55,22.01-26.07,10.91-47.57,26.91-59.99,52.83-.68,1.42-1.25,6.52-1.65,7.15-.46.74-13.55,4.84-16.23,6.33-18.83,10.44-31.89,35.73-39.62,55.03-4.65-3.29-10.36-4.49-15.96-4.4-2.55-.85,5.43-5.59-.28-6.05.05-.15-.04-.37,0-.55,16.25-14.74-11.72-11.48-15.68,0-.87-3.12-1.98-20.78-7.15-19.81-2.79.52-9.75,20.82-6.33,24.49l-1.93-1.93c-2.43,2.77-.91,2.49.83,4.4.68.75,1.12,1.85,2.2,2.2-.12.67,1.96,1.32.28,1.65-13.12,2.6-25.87-.03-32.19,17.06-3,3.26-6.6-1.18-10.46-1.1-.94-35.07,11.69-82.43,26.42-114.19,36.62-78.96,121.63-140.08,208.57-148.31Z" fill="#b2dde4"/><path d="M147.77,135.48c4.9-.6,11.23,1.62,13.48,6.33.67,1.41.27,4.31.55,4.95.68,1.54,3.4.43,4.13.83,1.3.7,3.58,3.81,3.85,3.85.84.12,3.38-2.26,7.7,0,.53.28,4.62,4.88,4.68,5.23,1.17,7.19-11.43,6.31-14.58,7.43-2.5.89-5.79,6.52-12.66,7.15-4.36.4-9.47-2.26-10.46-2.2-.2.01-2.55,2.11-3.3,2.2-2.32.27-3.64-1.64-3.85-1.65-2.21-.08-10.46,1.38-12.66,1.1-7.57-.98-3.96-7.43-4.13-7.98-.27-.91-3.56-.76-4.95-2.75-1.28-1.84-.68-3.85-1.1-4.95-.33-.88-4.05-1.53-1.65-6.6,1.77-3.75,6.4-1.74,8.53-2.48.57-.2,4.03-4.98,7.7-5.5s8.89,2.34,9.36,2.2c.58-.18,3.35-6.42,9.36-7.15Z" fill="#202422"/><path d="M147.22,136.58c8-1.31,15.68,4.4,12.93,12.93,5.36-3.92,9.88,3.16,10.73,7.98l-.28-5.23c4.53-3.46,10.58,3.02,9.36,7.15-1.44,4.84-4.36-.19-4.68-.28-.5-.13-.69,4.85-8.81,3.85l-2.75-1.65,2.48,3.03c-4.53,4.73-12.62,7.18-18.99,5.23-1.56-.48-4.13-3.25-4.4-3.3-2.04-.42-6.79,5.35-13.21,2.75-5.06-2.05-4.43-9.65-4.95-9.91-.46-.22-5.42,5.61-8.53-.28s3.43-6.36,4.68-7.98c.51-.67.63-3.7,1.38-4.68,4.99-6.51,14.97-6.94,17.34,1.93-1.91-5.05,2.94-10.77,7.7-11.56Z" fill="#fefeff"/><path d="M123.56,161.34c.42.18,1.84,7.46,4.68,7.43-9.61,4.81-8.36-9-4.68-7.43Z" fill="#b2dde4"/><path d="M116.4,147.03c.99-.26,2.72.18,3.85,0,2.67,1.89-5.56,6.71-6.05,6.6-3.01-.66.55-6.16,2.2-6.6Z" fill="#b2dde4"/><path d="M142.27,166.85c2.47,2.24-1.6,4.74-3.58,2.48l3.58-2.48Z" fill="#b2dde4"/><path d="M54.22,242.24c8.07-1.27,6.68,3.21,7.98,4.13.68.48,3.33.38,4.68,1.38,1.16.86,1.87,4.14,2.75,4.4.24.07,3.29-.99,4.95-.55,7.13,1.88,7.26,8.88,0,11.01-.42.12-7.31,1.5-8.25,1.65-1.97.32-5.29-1.35-6.6-1.1-.29.06-3.57,3.03-4.95,3.3-6.86,1.34-7.48-1.91-11.56-3.3-.43-.15-6.25,1.59-7.43-1.93-1.59-4.74,2.8-5.28,4.4-7.15.15-.17.94-3.36,1.93-4.13,1.73-1.35,4.21-.44,4.4-.55,1.18-.69,2.12-6.28,7.7-7.15Z" fill="#202422"/><path d="M55.87,242.79c3.95-.21,6.4,2.12,5.5,6.05,3.64-3.28,7.46,1.39,6.6,5.5,2.04-3.35,11.05-1.74,11.28,2.48.21,3.91-8.22,7.25-9.08,1.93-.4,8.95-10.34,1.91-11.01,2.2-.32.14.18,3.5-4.4,4.4-9.19,1.81-10.37-4.41-11.01-4.4-.32,0-1.16,3.38-5.5,1.1-5.5-2.88,1.79-6.05,2.48-6.88.58-.7.45-2.65.55-2.75,4.35-4.63,5.84-.96,6.33-1.38.25-.22.31-3.15,1.38-4.68.75-1.07,5.63-3.51,6.88-3.58Z" fill="#fefeff"/><path d="M75.95,254.9c.86.77,2.09,1.23,1.93,2.75-1.18.07-1.65-2.38-1.93-2.75Z" fill="#737d75"/><path d="M75.95,254.9c-.07-.06-1.34.03-1.65-.83,1.01-.82,1.23.27,1.65.83Z" fill="#737d75"/><path d="M26.42,394.13c-.5,1.94-.47,5.09-.55,7.15-.02-.03-.35.21-.55-.55-.42-1.62.16-5.38.55-7.15l.55.55Z" fill="#2f352d"/><path d="M27.52,391.38c.22.85-.98,2.27-1.1,2.75l-.55-.55c.17-.77.49-1.42.55-2.2.36-.03.74.03,1.1,0Z" fill="#737d75"/><path d="M256.46,362.76c.91-2.46.8-5.65,1.1-8.25.59-5.21,2.25-6.9-1.93-11.01-.66.06,2.3,5.74-3.3-.55,2.58,5.55,5.84,4.65,4.68,11.56-.14.85-1.76,5.3-2.2,6.33-.47,1.1-2.18.52-2.75,1.65-.22.43.33,8.37,0,9.63l-.28,34.67-28.34-.28,27.79-41-30.27,41.27c-64.88.75-129.81-1.08-194.54-4.95-.03-.02-.53-.52-.55-.55.08-2.06.05-5.21.55-7.15.12-.48,1.32-1.9,1.1-2.75,4.21-.36,6.26-2.02,11.01-2.2,3.6-.14,7.57,1.06,11.01,1.1,59.97.75,119.99.61,179.96.83-59.88-3.01-120.06,0-179.96-1.93-3.53-.11-7.02-.15-10.46-1.1.23-2.14.09-6.9,2.48-7.7,4.63-1.56,24.37-.6,30.54-.55,12.74.1,25.47,1.18,38.25,1.1,40.87-.25,81.8-2.7,122.72-1.65l-41.82-1.1-118.05.55,1.1-4.95,144.19-1.38-143.64-.28v-.55l2.48-3.3c57.37.35,114.97-.63,172.25-2.75l1.65-1.65-9.08.28c-.87-1.23.84-10.52.55-12.38-.07-.46-.64-1.09-.83-1.65-.48.12-.22,1.14-.28,1.65-1.02,9.18,3.95,15.98-10.46,12.38l3.3-35.22c1.48-1.52,7.62,1.67,10.18,1.93,6.15.6,13.27-.42,18.44-4.13l-9.08,3.03c-6.38.37-12.13-.14-18.16-2.2-.79-1.27.19-1.07,1.1-1.1,4.14-.15,9.94,2.11,15.41,1.65,3.48-.29,7.4-1.45,10.18-3.58-2.41-.11-5.63,2.21-7.98,2.48s-16.07-.19-17.61-1.1c-1.36-.8.03-2.06.55-2.2,6.46-1.8,16.84.93,23.66-1.65l-22.56.55c3.57-4.99,14.82-3.15,20.91-3.85l-17.61.55c1.4-2.94,6.98-2.36,8.25-4.4-23.05,3.1-19.03,32.88-20.36,50.08-48.45,2.44-97.12.43-145.56,2.75.09-.63-.44-.48-.55-.55,17.75-42.27,23.17-95.39,75.67-107.86,46.88-11.14,160.67-13.05,201.97,12.11,10.1,6.15,17.58,16.99,23.94,26.69,13.22,20.17,24.34,42.67,25.87,67.14l-3.03,1.38c-44.35.43-88.79-1.27-133.18-1.65-2.02-11.79-.37-24.89-2.48-36.6-1.37-7.65-7.02-12.98-5.5-21.46l-.83,8.53c-3.41-2.86-2.06-7.2-2.75-11.01l-1.1,7.15c-2.02-2.23-2.67-3.55-2.75-6.6l-1.1,3.85c-4.43-2.71.43-7.78-1.65-11.56-.3,1.24-1.05,8.41-1.65,8.81-.48.32-8.3-3.25-11.01,0l-1.1-6.6c-.19,5.46,1.79,6.9-3.85,9.91l-1.1-2.2c-1.37,3.46-3.53,8.68-4.68,1.93.41,6.88-7.27,9.78-6.6,17.06l2.2-6.05,1.65,1.65c-.42-7.08,14.43-16.99,20.64-16.23,4.34.53,15.92,11.05,17.89,15.13,5.12,10.63,2.5,31.43,3.85,43.48-1.23.85-1.61-3.99-1.65-4.4-1.39-13.09.38-35.45-10.18-44.85-8.32-7.4-13.44-8.39-22.01-1.65-15.79,12.42-10.69,32.31-12.66,50.08,4.65-16.5-3.13-33.49,11.01-46.78,7.93-7.46,11.87-9.23,20.91-2.2,13.15,10.22,10.86,34.59,12.38,49.8-.28.92-7.2,1.48-8.25,0s1.54-20.86-3.3-26.42c-2.78-3.18-9.12-3.8-12.93-2.48-8.92,3.1-6.64,21.02-6.88,28.34,2.74-6.48-1.73-25.49,8.53-27.79,16.65-3.73,11.46,19.84,13.48,28.89-3.3,3.05-4.22-1.37-4.95-1.93Z" fill="#fefeff"/><path d="M257.56,354.51c-.3,2.6-.19,5.8-1.1,8.25-.3-.23-1.6-1.51-1.65-.55-.9.34-.03,1.78,0,2.75h-1.1l-.55,7.15h-1.1c.33-1.26-.22-9.2,0-9.63.57-1.14,2.29-.55,2.75-1.65.44-1.03,2.06-5.48,2.2-6.33h.55Z" fill="#6d6f6a"/><polygon points="74.3 373.77 73.75 372.67 74.85 372.12 218.49 372.39 74.3 373.77" fill="#202422"/><path d="M72.1,379.82l1.1-1.1,118.05-.55,41.82,1.1c-40.93-1.05-81.85,1.4-122.72,1.65-12.78.08-25.51-1-38.25-1.1Z" fill="#202422"/><path d="M49.54,389.18v1.1c-3.44-.04-7.41-1.24-11.01-1.1-.03-.49.49-.55.55-1.1,3.43.95,6.92.99,10.46,1.1Z" fill="#54544e"/><path d="M241.6,351.76h1.1c.29,1.86-1.42,11.15-.55,12.38l9.08-.28-1.65,1.65c-57.28,2.12-114.88,3.1-172.25,2.75l-2.48,3.3-.55-.55c2.7-5.35,4.01-3.02,9.91-3.3,48.44-2.32,97.11-.32,145.56-2.75,1.33-17.2-2.69-46.98,20.36-50.08-1.28,2.04-6.86,1.46-8.25,4.4l17.61-.55c-6.09.7-17.34-1.13-20.91,3.85l22.56-.55c-6.82,2.58-17.2-.15-23.66,1.65-.52.14-1.91,1.4-.55,2.2,1.54.91,15.25,1.37,17.61,1.1s5.57-2.58,7.98-2.48c-2.78,2.13-6.7,3.29-10.18,3.58-5.47.46-11.27-1.8-15.41-1.65-.91.03-1.89-.17-1.1,1.1,6.03,2.06,11.78,2.57,18.16,2.2l9.08-3.03c-5.16,3.71-12.28,4.73-18.44,4.13-2.56-.25-8.7-3.45-10.18-1.93l-3.3,35.22c14.41,3.6,9.44-3.2,10.46-12.38Z" fill="#202422"/><path d="M33.85,392.48l138.68,1.65,54.21,2.48c-64.62-2.14-129.34-.73-193.99-2.48l1.1-1.65Z" fill="#202422"/><path d="M49.54,390.28v-1.1c59.9,1.92,120.07-1.08,179.96,1.93-59.97-.21-119.99-.07-179.96-.83Z" fill="#202422"/><path d="M34.4,396.88l175.28,5.23c-38.2-1.36-76.53-.24-114.74-1.38-16.27-.48-44.48-.04-59.44-2.75-.79-.14-1.93.3-1.1-1.1Z" fill="#202422"/><polygon points="42.93 385.33 42.38 384.78 197.03 383.95 42.93 385.33" fill="#202422"/><path d="M203.35,307.18c6.52.83,15.86-1.12,22.01,0,.79.14,1.93-.3,1.1,1.1-39.98-1.37-79.42,5.44-118.6,11.83,30.91-7.92,63.59-10.27,95.48-12.93Z" fill="#202422"/><path d="M195.1,315.99c8.26.33,16.72-.88,24.76,1.1l-45.68,1.1-70.17,10.18c29.84-7.11,60.48-10.28,91.08-12.38Z" fill="#202422"/><path d="M272.7,306.63c32.47,2.78,65.12,3.89,97.41,8.25l11.83,3.03c-35.74-5.81-71.99-7.72-108.14-10.18l-1.1,17.61v-18.71Z" fill="#202422"/><path d="M208.86,326.44c3.79-.07,10.33-.82,13.21,1.1-40.66-1.26-80.45,6.37-120.25,12.93.91-1.3,3.3-1.63,4.68-1.93,31.11-6.7,70.55-11.49,102.36-12.11Z" fill="#202422"/><path d="M216.01,285.72c.85-.02,5.81-.67,4.95,1.1-29.85.65-61.24,2.24-90.25,9.36-4.92,1.21-10.78,4.69-15.68,4.13,10.71-4.86,22.77-7.23,34.4-9.08,21.03-3.34,45.26-4.94,66.59-5.5Z" fill="#202422"/><path d="M287,319.29h23.66c27.91,2.7,56.4,3.93,83.37,11.83-25.77-4.83-51.69-8.61-77.87-10.73-8.18-1.05-19.75,1.13-27.52,0-.63-.09-2.01.11-1.65-1.1Z" fill="#202422"/><path d="M191.8,338c.88,1.52-.82,1.04-1.65,1.1-31.76,2.44-62.06,5.21-93.28,11.83,30.85-8.16,63.02-11.16,94.93-12.93Z" fill="#050a0b"/><path d="M258.39,286.27c29.78-.14,59.62-.44,89.15,3.3l17.89,4.13c-22.95-4.3-46.24-6.35-69.62-6.88-9.44-.21-28.61,1.95-36.32.55-.79-.14-1.93.3-1.1-1.1Z" fill="#2f352d"/><path d="M302.96,329.19c26.29,1.16,52.18,5.05,78.15,8.81l14.03,3.58-92.18-12.38Z" fill="#202422"/><path d="M192.9,301.68c.62-.02,5.16-.69,4.4,1.1-29.86-.41-58.97,5.06-88.33,9.08,27.55-6.06,55.69-9.24,83.93-10.18Z" fill="#202422"/><path d="M307.92,340.75c29.66.78,59.28,3.11,88.33,9.08l-88.33-9.08Z" fill="#202422"/><path d="M328.83,293.97c3.2-1.07,41.64,3.69,41,6.33l-41-6.33Z" fill="#202422"/><path d="M307.92,258.75c11.16.72,22.12,2.67,33.02,4.95l7.43,3.03-40.45-7.98Z" fill="#202422"/><path d="M174.74,258.75c.91-.07,1.84.05,2.75,0-11.45,2.79-23.27,5.52-34.4,10.18-1.04-2.68,29.11-9.97,31.64-10.18Z" fill="#202422"/><polygon points="153.27 276.91 140.62 280.76 127.13 284.34 139.52 280.21 153.27 276.91" fill="#202422"/><path d="M149.97,282.97c.48-.02,1.71-.18,1.93.28-7.08,1.4-15.74,4.8-22.84,5.78-.96.13-2.91.62-3.58-.28,7.17-.9,17.69-5.44,24.49-5.78Z" fill="#202422"/><path d="M158.78,265.91c.29-.05,2.71-.31,2.2.55l-25.04,7.43c6.79-2.08,16.07-6.9,22.84-7.98Z" fill="#2f352d"/><path d="M252.88,346.25l-4.68,7.43c1.96.68,4.81,1.32,5.78-1.38,1.85,4.74-13.35,2.81-8.25,0,1.01,4.38,5.28-4.57,7.15-6.05Z" fill="#dfe0e0"/><path d="M257.56,354.51h-.55c1.16-6.91-2.1-6.01-4.68-11.56,5.6,6.29,2.64.61,3.3.55,4.18,4.11,2.52,5.79,1.93,11.01Z" fill="#dfe0e0"/><polygon points="153.27 272.51 144.47 275.81 133.74 277.74 143.09 274.99 153.27 272.51" fill="#2f352d"/><path d="M283.7,344.05c.46,6.01.46,12.15,0,18.16-1.42-5.93-1-12.21,0-18.16Z" fill="#202422"/><path d="M205.01,346.25l.55,15.96c-1.26-4.64-1.36-11.45-.55-15.96Z" fill="#202422"/><path d="M321.68,347.9c.74-.12,2.55,13.49.55,14.86l-.55-14.86Z" fill="#868984"/><path d="M280.95,314.88c1.73,7.47.66,15.54.55,23.11-.62-7.69-.01-15.44-.55-23.11Z" fill="#6d6f6a"/><path d="M215.46,346.8c1.44,4.51,2,10.13,1.65,14.86-1.16-4.58-1.73-10.13-1.65-14.86Z" fill="#202422"/><path d="M297.46,348.45c1.86,4.67,1.61,10.01.55,14.86l-.55-14.86Z" fill="#202422"/><path d="M194,347.35c1.41,1.47,1.91,15.96,1.1,15.96l-1.1-15.96Z" fill="#202422"/><path d="M185.19,349c1.3,4.19,2.34,10.08.55,14.31l-.55-14.31Z" fill="#2f352d"/><path d="M311.77,348.45c.56,4.59-.48,9.17-.55,13.76-.69,0-.56-12.58.55-13.76Z" fill="#202422"/><path d="M173.64,351.21c1.5,2.45,1.61,6.62,1.1,9.36l-1.1-9.36Z" fill="#6d6f6a"/><path d="M340.94,280.21l13.48.83c0,.69-12.88.69-13.48-.83Z" fill="#585f5a"/><path d="M335.43,271.96l9.63,1.93c-2.75.03-7.63.13-9.63-1.93Z" fill="#868984"/><path d="M251.23,314.88c2.36-.28,4.56.26,6.33,1.93l-6.33-1.93Z" fill="#54544e"/><path d="M246.83,347.9c.71,1.36-1.62,2.36-2.2,3.3-.71-1.36,1.62-2.36,2.2-3.3Z" fill="#dfe0e0"/><path d="M42.93,385.33l-1.1.83c-.32-1.1.3-1.06.55-1.38l.55.55Z" fill="#737d75"/><path d="M242.7,351.76h-1.1c.06-.51-.2-1.53.28-1.65.18.56.75,1.19.83,1.65Z" fill="#979895"/><path d="M248.48,276.36c3.1-.9,10.21,15.97,9.63,18.44-.47,1.99-2.67,1.44-3.3,3.85-.48,1.84.57,4.44-.28,6.33l-.55-7.7c-.87-.53-9.05,2.46-11.01,1.65-4.8-1.98,4.32-22.22,5.5-22.56Z" fill="#202422"/><path d="M253.43,286.27l3.58,8.53c-6.17,1.46-19.12,7.09-13.48-4.68,1.47,5.36,7.58,3.43,11.28,1.38-2.33-1.28-5.95,2.38-8.53,1.38-1.19-.46-2.19-4.24-1.93-5.23.33-1.24,7.88.88,9.08-1.38Z" fill="#fefeff"/><path d="M249.03,277.46c1.29-.18,6.7,8.28,1.65,9.36-7.66,1.64-4.67-5.65-1.65-9.36Z" fill="#fefeff"/></g></svg>